<mxfile host="app.diagrams.net" modified="2024-05-28T15:40:14.902Z" agent="Mozilla/5.0 (Windows NT 10.0; Win64; x64) AppleWebKit/537.36 (KHTML, like Gecko) Chrome/125.0.0.0 Safari/537.36" etag="HYbzUwST7oTqGSDncwf-" version="24.4.9" type="github">
  <diagram name="페이지-1" id="IF5AbfCkqErPpQ4If3bP">
    <mxGraphModel dx="1434" dy="746" grid="1" gridSize="10" guides="1" tooltips="1" connect="1" arrows="1" fold="1" page="1" pageScale="1" pageWidth="1169" pageHeight="1654" math="0" shadow="0">
      <root>
        <mxCell id="0" />
        <mxCell id="1" parent="0" />
        <mxCell id="cT9uqwKPEqpuGE8zAoui-2" value="고객" style="rounded=0;whiteSpace=wrap;html=1;" vertex="1" parent="1">
          <mxGeometry x="300" y="260" width="100" height="40" as="geometry" />
        </mxCell>
        <mxCell id="cT9uqwKPEqpuGE8zAoui-4" value="고객명" style="ellipse;whiteSpace=wrap;html=1;align=center;" vertex="1" parent="1">
          <mxGeometry x="170" y="180" width="100" height="40" as="geometry" />
        </mxCell>
        <mxCell id="cT9uqwKPEqpuGE8zAoui-5" value="전화번호" style="ellipse;whiteSpace=wrap;html=1;align=center;fontStyle=4;" vertex="1" parent="1">
          <mxGeometry x="270" y="170" width="100" height="40" as="geometry" />
        </mxCell>
        <mxCell id="cT9uqwKPEqpuGE8zAoui-6" value="이메일" style="ellipse;whiteSpace=wrap;html=1;align=center;fontStyle=4;" vertex="1" parent="1">
          <mxGeometry x="370" y="170" width="100" height="40" as="geometry" />
        </mxCell>
        <mxCell id="cT9uqwKPEqpuGE8zAoui-7" value="" style="endArrow=none;html=1;rounded=0;entryX=0.5;entryY=1;entryDx=0;entryDy=0;exitX=0.5;exitY=0;exitDx=0;exitDy=0;" edge="1" parent="1" source="cT9uqwKPEqpuGE8zAoui-2" target="cT9uqwKPEqpuGE8zAoui-5">
          <mxGeometry relative="1" as="geometry">
            <mxPoint x="380" y="255" as="sourcePoint" />
            <mxPoint x="430" y="350" as="targetPoint" />
          </mxGeometry>
        </mxCell>
        <mxCell id="cT9uqwKPEqpuGE8zAoui-8" value="" style="endArrow=none;html=1;rounded=0;exitX=1;exitY=0.5;exitDx=0;exitDy=0;" edge="1" parent="1" source="cT9uqwKPEqpuGE8zAoui-16">
          <mxGeometry relative="1" as="geometry">
            <mxPoint x="180" y="240" as="sourcePoint" />
            <mxPoint x="300" y="280" as="targetPoint" />
          </mxGeometry>
        </mxCell>
        <mxCell id="cT9uqwKPEqpuGE8zAoui-11" value="" style="endArrow=none;html=1;rounded=0;entryX=0.42;entryY=1;entryDx=0;entryDy=0;entryPerimeter=0;" edge="1" parent="1" target="cT9uqwKPEqpuGE8zAoui-6">
          <mxGeometry relative="1" as="geometry">
            <mxPoint x="350" y="260" as="sourcePoint" />
            <mxPoint x="410" y="220" as="targetPoint" />
            <Array as="points" />
          </mxGeometry>
        </mxCell>
        <mxCell id="cT9uqwKPEqpuGE8zAoui-12" value="고객코드" style="ellipse;whiteSpace=wrap;html=1;align=center;fontStyle=4;" vertex="1" parent="1">
          <mxGeometry x="470" y="180" width="100" height="40" as="geometry" />
        </mxCell>
        <mxCell id="cT9uqwKPEqpuGE8zAoui-15" value="" style="endArrow=none;html=1;rounded=0;entryX=0;entryY=1;entryDx=0;entryDy=0;" edge="1" parent="1" target="cT9uqwKPEqpuGE8zAoui-12">
          <mxGeometry relative="1" as="geometry">
            <mxPoint x="350" y="260" as="sourcePoint" />
            <mxPoint x="464.64466094067257" y="214.14213562373084" as="targetPoint" />
          </mxGeometry>
        </mxCell>
        <mxCell id="cT9uqwKPEqpuGE8zAoui-16" value="주소&lt;span style=&quot;color: rgba(0, 0, 0, 0); font-family: monospace; font-size: 0px; text-align: start; text-wrap: nowrap;&quot;&gt;%3CmxGraphModel%3E%3Croot%3E%3CmxCell%20id%3D%220%22%2F%3E%3CmxCell%20id%3D%221%22%20parent%3D%220%22%2F%3E%3CmxCell%20id%3D%222%22%20value%3D%22%EA%B3%A0%EA%B0%9D%EB%AA%85%22%20style%3D%22ellipse%3BwhiteSpace%3Dwrap%3Bhtml%3D1%3Balign%3Dcenter%3B%22%20vertex%3D%221%22%20parent%3D%221%22%3E%3CmxGeometry%20x%3D%22220%22%20y%3D%22390%22%20width%3D%22100%22%20height%3D%2240%22%20as%3D%22geometry%22%2F%3E%3C%2FmxCell%3E%3C%2Froot%3E%3C%2FmxGraphModel%3E&lt;/span&gt;" style="ellipse;whiteSpace=wrap;html=1;align=center;" vertex="1" parent="1">
          <mxGeometry x="140" y="250" width="100" height="40" as="geometry" />
        </mxCell>
        <mxCell id="cT9uqwKPEqpuGE8zAoui-17" value="기본주소&lt;span style=&quot;color: rgba(0, 0, 0, 0); font-family: monospace; font-size: 0px; text-align: start; text-wrap: nowrap;&quot;&gt;%3CmxGraphModel%3E%3Croot%3E%3CmxCell%20id%3D%220%22%2F%3E%3CmxCell%20id%3D%221%22%20parent%3D%220%22%2F%3E%3CmxCell%20id%3D%222%22%20value%3D%22%EA%B3%A0%EA%B0%9D%EB%AA%85%22%20style%3D%22ellipse%3BwhiteSpace%3Dwrap%3Bhtml%3D1%3Balign%3Dcenter%3B%22%20vertex%3D%221%22%20parent%3D%221%22%3E%3CmxGeometry%20x%3D%22220%22%20y%3D%22390%22%20width%3D%22100%22%20height%3D%2240%22%20as%3D%22geometry%22%2F%3E%3C%2FmxCell%3E%3C%2Froot%3E%3C%2FmxGraphModel%3E&lt;/span&gt;" style="ellipse;whiteSpace=wrap;html=1;align=center;" vertex="1" parent="1">
          <mxGeometry x="20" y="220" width="100" height="40" as="geometry" />
        </mxCell>
        <mxCell id="cT9uqwKPEqpuGE8zAoui-19" value="상세주소" style="ellipse;whiteSpace=wrap;html=1;align=center;" vertex="1" parent="1">
          <mxGeometry x="20" y="270" width="100" height="40" as="geometry" />
        </mxCell>
        <mxCell id="cT9uqwKPEqpuGE8zAoui-21" value="" style="endArrow=none;html=1;rounded=0;exitX=0.44;exitY=1;exitDx=0;exitDy=0;exitPerimeter=0;" edge="1" parent="1">
          <mxGeometry relative="1" as="geometry">
            <mxPoint x="224" y="220" as="sourcePoint" />
            <mxPoint x="350" y="260" as="targetPoint" />
          </mxGeometry>
        </mxCell>
        <mxCell id="cT9uqwKPEqpuGE8zAoui-22" value="" style="endArrow=none;html=1;rounded=0;exitX=1;exitY=0.5;exitDx=0;exitDy=0;entryX=0;entryY=0.5;entryDx=0;entryDy=0;" edge="1" parent="1" source="cT9uqwKPEqpuGE8zAoui-17" target="cT9uqwKPEqpuGE8zAoui-16">
          <mxGeometry relative="1" as="geometry">
            <mxPoint x="120" y="240" as="sourcePoint" />
            <mxPoint x="180" y="250" as="targetPoint" />
          </mxGeometry>
        </mxCell>
        <mxCell id="cT9uqwKPEqpuGE8zAoui-23" value="" style="endArrow=none;html=1;rounded=0;exitX=0;exitY=0.5;exitDx=0;exitDy=0;entryX=1;entryY=0.5;entryDx=0;entryDy=0;" edge="1" parent="1" source="cT9uqwKPEqpuGE8zAoui-16" target="cT9uqwKPEqpuGE8zAoui-19">
          <mxGeometry relative="1" as="geometry">
            <mxPoint x="140" y="250" as="sourcePoint" />
            <mxPoint x="150" y="280" as="targetPoint" />
          </mxGeometry>
        </mxCell>
        <mxCell id="cT9uqwKPEqpuGE8zAoui-24" value="지역" style="rounded=0;whiteSpace=wrap;html=1;" vertex="1" parent="1">
          <mxGeometry x="300" y="530" width="100" height="40" as="geometry" />
        </mxCell>
        <mxCell id="cT9uqwKPEqpuGE8zAoui-25" value="지역명" style="ellipse;whiteSpace=wrap;html=1;align=center;" vertex="1" parent="1">
          <mxGeometry x="130" y="500" width="100" height="40" as="geometry" />
        </mxCell>
        <mxCell id="cT9uqwKPEqpuGE8zAoui-28" value="" style="endArrow=none;html=1;rounded=0;entryX=0;entryY=0.5;entryDx=0;entryDy=0;exitX=1;exitY=0.5;exitDx=0;exitDy=0;" edge="1" parent="1" source="cT9uqwKPEqpuGE8zAoui-31" target="cT9uqwKPEqpuGE8zAoui-24">
          <mxGeometry relative="1" as="geometry">
            <mxPoint x="250" y="575" as="sourcePoint" />
            <mxPoint x="300" y="550" as="targetPoint" />
          </mxGeometry>
        </mxCell>
        <mxCell id="cT9uqwKPEqpuGE8zAoui-29" value="" style="endArrow=none;html=1;rounded=0;exitX=1;exitY=0.5;exitDx=0;exitDy=0;entryX=0;entryY=0.5;entryDx=0;entryDy=0;" edge="1" parent="1" source="cT9uqwKPEqpuGE8zAoui-25" target="cT9uqwKPEqpuGE8zAoui-24">
          <mxGeometry relative="1" as="geometry">
            <mxPoint x="300" y="635" as="sourcePoint" />
            <mxPoint x="340" y="620" as="targetPoint" />
          </mxGeometry>
        </mxCell>
        <mxCell id="cT9uqwKPEqpuGE8zAoui-31" value="지역코드" style="ellipse;whiteSpace=wrap;html=1;align=center;fontStyle=4;" vertex="1" parent="1">
          <mxGeometry x="130" y="560" width="100" height="40" as="geometry" />
        </mxCell>
        <mxCell id="cT9uqwKPEqpuGE8zAoui-32" value="가입일&lt;span style=&quot;color: rgba(0, 0, 0, 0); font-family: monospace; font-size: 0px; text-align: start; text-wrap: nowrap;&quot;&gt;%3CmxGraphModel%3E%3Croot%3E%3CmxCell%20id%3D%220%22%2F%3E%3CmxCell%20id%3D%221%22%20parent%3D%220%22%2F%3E%3CmxCell%20id%3D%222%22%20value%3D%22%EC%A3%BC%EC%86%8C%26lt%3Bspan%20style%3D%26quot%3Bcolor%3A%20rgba(0%2C%200%2C%200%2C%200)%3B%20font-family%3A%20monospace%3B%20font-size%3A%200px%3B%20text-align%3A%20start%3B%20text-wrap%3A%20nowrap%3B%26quot%3B%26gt%3B%253CmxGraphModel%253E%253Croot%253E%253CmxCell%2520id%253D%25220%2522%252F%253E%253CmxCell%2520id%253D%25221%2522%2520parent%253D%25220%2522%252F%253E%253CmxCell%2520id%253D%25222%2522%2520value%253D%2522%25EA%25B3%25A0%25EA%25B0%259D%25EB%25AA%2585%2522%2520style%253D%2522ellipse%253BwhiteSpace%253Dwrap%253Bhtml%253D1%253Balign%253Dcenter%253B%2522%2520vertex%253D%25221%2522%2520parent%253D%25221%2522%253E%253CmxGeometry%2520x%253D%2522220%2522%2520y%253D%2522390%2522%2520width%253D%2522100%2522%2520height%253D%252240%2522%2520as%253D%2522geometry%2522%252F%253E%253C%252FmxCell%253E%253C%252Froot%253E%253C%252FmxGraphModel%253E%26lt%3B%2Fspan%26gt%3B%22%20style%3D%22ellipse%3BwhiteSpace%3Dwrap%3Bhtml%3D1%3Balign%3Dcenter%3B%22%20vertex%3D%221%22%20parent%3D%221%22%3E%3CmxGeometry%20x%3D%22230%22%20y%3D%22240%22%20width%3D%22100%22%20height%3D%2240%22%20as%3D%22geometry%22%2F%3E%3C%2FmxCell%3E%3C%2Froot%3E%3C%2FmxGraphModel%3E&lt;/span&gt;" style="ellipse;whiteSpace=wrap;html=1;align=center;" vertex="1" parent="1">
          <mxGeometry x="150" y="310" width="100" height="40" as="geometry" />
        </mxCell>
        <mxCell id="cT9uqwKPEqpuGE8zAoui-34" value="" style="endArrow=none;html=1;rounded=0;exitX=1;exitY=0.5;exitDx=0;exitDy=0;entryX=0;entryY=0.5;entryDx=0;entryDy=0;exitPerimeter=0;" edge="1" parent="1" source="cT9uqwKPEqpuGE8zAoui-32" target="cT9uqwKPEqpuGE8zAoui-2">
          <mxGeometry relative="1" as="geometry">
            <mxPoint x="240" y="320" as="sourcePoint" />
            <mxPoint x="300" y="330" as="targetPoint" />
          </mxGeometry>
        </mxCell>
        <mxCell id="cT9uqwKPEqpuGE8zAoui-35" value="" style="endArrow=none;html=1;rounded=0;exitX=0.5;exitY=0;exitDx=0;exitDy=0;" edge="1" parent="1" source="cT9uqwKPEqpuGE8zAoui-58">
          <mxGeometry relative="1" as="geometry">
            <mxPoint x="318" y="341" as="sourcePoint" />
            <mxPoint x="350" y="300" as="targetPoint" />
          </mxGeometry>
        </mxCell>
        <mxCell id="cT9uqwKPEqpuGE8zAoui-61" value="N" style="edgeLabel;html=1;align=center;verticalAlign=middle;resizable=0;points=[];" vertex="1" connectable="0" parent="cT9uqwKPEqpuGE8zAoui-35">
          <mxGeometry x="-0.0444" y="4" relative="1" as="geometry">
            <mxPoint x="-6" y="33" as="offset" />
          </mxGeometry>
        </mxCell>
        <mxCell id="cT9uqwKPEqpuGE8zAoui-36" value="제품" style="rounded=0;whiteSpace=wrap;html=1;" vertex="1" parent="1">
          <mxGeometry x="732" y="406" width="100" height="40" as="geometry" />
        </mxCell>
        <mxCell id="cT9uqwKPEqpuGE8zAoui-38" value="" style="endArrow=none;html=1;rounded=0;entryX=0.5;entryY=0;entryDx=0;entryDy=0;" edge="1" parent="1" source="cT9uqwKPEqpuGE8zAoui-40" target="cT9uqwKPEqpuGE8zAoui-36">
          <mxGeometry relative="1" as="geometry">
            <mxPoint x="682" y="451" as="sourcePoint" />
            <mxPoint x="732" y="426" as="targetPoint" />
          </mxGeometry>
        </mxCell>
        <mxCell id="cT9uqwKPEqpuGE8zAoui-40" value="제품코드" style="ellipse;whiteSpace=wrap;html=1;align=center;fontStyle=4;" vertex="1" parent="1">
          <mxGeometry x="612" y="321" width="100" height="40" as="geometry" />
        </mxCell>
        <mxCell id="cT9uqwKPEqpuGE8zAoui-41" value="제품명" style="ellipse;whiteSpace=wrap;html=1;align=center;" vertex="1" parent="1">
          <mxGeometry x="722" y="321" width="100" height="40" as="geometry" />
        </mxCell>
        <mxCell id="cT9uqwKPEqpuGE8zAoui-42" value="" style="endArrow=none;html=1;rounded=0;exitX=1;exitY=0.5;exitDx=0;exitDy=0;" edge="1" parent="1">
          <mxGeometry relative="1" as="geometry">
            <mxPoint x="772" y="361" as="sourcePoint" />
            <mxPoint x="782" y="407" as="targetPoint" />
          </mxGeometry>
        </mxCell>
        <mxCell id="cT9uqwKPEqpuGE8zAoui-43" value="제품구분" style="ellipse;whiteSpace=wrap;html=1;align=center;" vertex="1" parent="1">
          <mxGeometry x="822" y="321" width="100" height="40" as="geometry" />
        </mxCell>
        <mxCell id="cT9uqwKPEqpuGE8zAoui-44" value="" style="endArrow=none;html=1;rounded=0;exitX=0.5;exitY=1;exitDx=0;exitDy=0;" edge="1" parent="1" source="cT9uqwKPEqpuGE8zAoui-43">
          <mxGeometry relative="1" as="geometry">
            <mxPoint x="782" y="371" as="sourcePoint" />
            <mxPoint x="782" y="406" as="targetPoint" />
          </mxGeometry>
        </mxCell>
        <mxCell id="cT9uqwKPEqpuGE8zAoui-46" value="제품색상" style="ellipse;shape=doubleEllipse;margin=3;whiteSpace=wrap;html=1;align=center;" vertex="1" parent="1">
          <mxGeometry x="922" y="352" width="100" height="40" as="geometry" />
        </mxCell>
        <mxCell id="cT9uqwKPEqpuGE8zAoui-47" value="가격" style="ellipse;whiteSpace=wrap;html=1;align=center;" vertex="1" parent="1">
          <mxGeometry x="930" y="418" width="100" height="40" as="geometry" />
        </mxCell>
        <mxCell id="cT9uqwKPEqpuGE8zAoui-48" value="" style="endArrow=none;html=1;rounded=0;exitX=0;exitY=1;exitDx=0;exitDy=0;entryX=1;entryY=0.5;entryDx=0;entryDy=0;" edge="1" parent="1" source="cT9uqwKPEqpuGE8zAoui-46" target="cT9uqwKPEqpuGE8zAoui-36">
          <mxGeometry relative="1" as="geometry">
            <mxPoint x="912" y="388" as="sourcePoint" />
            <mxPoint x="832" y="426" as="targetPoint" />
          </mxGeometry>
        </mxCell>
        <mxCell id="cT9uqwKPEqpuGE8zAoui-49" value="" style="endArrow=none;html=1;rounded=0;exitX=0;exitY=0.5;exitDx=0;exitDy=0;entryX=1;entryY=0.5;entryDx=0;entryDy=0;" edge="1" parent="1" source="cT9uqwKPEqpuGE8zAoui-47" target="cT9uqwKPEqpuGE8zAoui-36">
          <mxGeometry relative="1" as="geometry">
            <mxPoint x="912" y="441" as="sourcePoint" />
            <mxPoint x="842" y="444" as="targetPoint" />
          </mxGeometry>
        </mxCell>
        <mxCell id="cT9uqwKPEqpuGE8zAoui-53" value="" style="endArrow=none;html=1;rounded=0;exitX=0;exitY=0.5;exitDx=0;exitDy=0;entryX=0.5;entryY=1;entryDx=0;entryDy=0;" edge="1" parent="1" source="cT9uqwKPEqpuGE8zAoui-63" target="cT9uqwKPEqpuGE8zAoui-2">
          <mxGeometry relative="1" as="geometry">
            <mxPoint x="441" y="323" as="sourcePoint" />
            <mxPoint x="442" y="279" as="targetPoint" />
          </mxGeometry>
        </mxCell>
        <mxCell id="cT9uqwKPEqpuGE8zAoui-77" value="N" style="edgeLabel;html=1;align=center;verticalAlign=middle;resizable=0;points=[];" vertex="1" connectable="0" parent="cT9uqwKPEqpuGE8zAoui-53">
          <mxGeometry x="0.0487" y="-5" relative="1" as="geometry">
            <mxPoint x="77" y="51" as="offset" />
          </mxGeometry>
        </mxCell>
        <mxCell id="cT9uqwKPEqpuGE8zAoui-55" value="" style="endArrow=none;html=1;rounded=0;exitX=1;exitY=0.5;exitDx=0;exitDy=0;entryX=0;entryY=0.5;entryDx=0;entryDy=0;" edge="1" parent="1" source="cT9uqwKPEqpuGE8zAoui-63" target="cT9uqwKPEqpuGE8zAoui-36">
          <mxGeometry relative="1" as="geometry">
            <mxPoint x="770" y="510" as="sourcePoint" />
            <mxPoint x="690" y="460" as="targetPoint" />
          </mxGeometry>
        </mxCell>
        <mxCell id="cT9uqwKPEqpuGE8zAoui-78" value="M" style="edgeLabel;html=1;align=center;verticalAlign=middle;resizable=0;points=[];" vertex="1" connectable="0" parent="cT9uqwKPEqpuGE8zAoui-55">
          <mxGeometry x="-0.5644" y="2" relative="1" as="geometry">
            <mxPoint x="-18" y="-12" as="offset" />
          </mxGeometry>
        </mxCell>
        <mxCell id="cT9uqwKPEqpuGE8zAoui-58" value="관리" style="shape=rhombus;perimeter=rhombusPerimeter;whiteSpace=wrap;html=1;align=center;" vertex="1" parent="1">
          <mxGeometry x="290" y="390" width="120" height="60" as="geometry" />
        </mxCell>
        <mxCell id="cT9uqwKPEqpuGE8zAoui-63" value="구매" style="shape=rhombus;perimeter=rhombusPerimeter;whiteSpace=wrap;html=1;align=center;" vertex="1" parent="1">
          <mxGeometry x="503" y="394" width="119" height="60" as="geometry" />
        </mxCell>
        <mxCell id="cT9uqwKPEqpuGE8zAoui-64" value="수량" style="ellipse;whiteSpace=wrap;html=1;align=center;" vertex="1" parent="1">
          <mxGeometry x="541.5" y="490" width="73" height="40" as="geometry" />
        </mxCell>
        <mxCell id="cT9uqwKPEqpuGE8zAoui-65" value="구매일자" style="ellipse;whiteSpace=wrap;html=1;align=center;" vertex="1" parent="1">
          <mxGeometry x="628" y="490" width="73" height="40" as="geometry" />
        </mxCell>
        <mxCell id="cT9uqwKPEqpuGE8zAoui-66" value="구매번호" style="ellipse;whiteSpace=wrap;html=1;align=center;fontStyle=4;" vertex="1" parent="1">
          <mxGeometry x="431" y="490" width="100" height="40" as="geometry" />
        </mxCell>
        <mxCell id="cT9uqwKPEqpuGE8zAoui-67" value="" style="endArrow=none;html=1;rounded=0;exitX=0.5;exitY=0;exitDx=0;exitDy=0;" edge="1" parent="1" source="cT9uqwKPEqpuGE8zAoui-24">
          <mxGeometry relative="1" as="geometry">
            <mxPoint x="349.5" y="510" as="sourcePoint" />
            <mxPoint x="350" y="450" as="targetPoint" />
          </mxGeometry>
        </mxCell>
        <mxCell id="cT9uqwKPEqpuGE8zAoui-68" value="1" style="edgeLabel;html=1;align=center;verticalAlign=middle;resizable=0;points=[];" vertex="1" connectable="0" parent="cT9uqwKPEqpuGE8zAoui-67">
          <mxGeometry x="-0.0444" y="4" relative="1" as="geometry">
            <mxPoint x="-6" y="-32" as="offset" />
          </mxGeometry>
        </mxCell>
        <mxCell id="cT9uqwKPEqpuGE8zAoui-70" value="" style="endArrow=none;html=1;rounded=0;entryX=0.5;entryY=0;entryDx=0;entryDy=0;exitX=0.5;exitY=1;exitDx=0;exitDy=0;" edge="1" parent="1" source="cT9uqwKPEqpuGE8zAoui-63" target="cT9uqwKPEqpuGE8zAoui-66">
          <mxGeometry relative="1" as="geometry">
            <mxPoint x="430" y="421" as="sourcePoint" />
            <mxPoint x="520" y="470" as="targetPoint" />
          </mxGeometry>
        </mxCell>
        <mxCell id="cT9uqwKPEqpuGE8zAoui-71" value="" style="endArrow=none;html=1;rounded=0;entryX=0.5;entryY=0;entryDx=0;entryDy=0;exitX=0.5;exitY=1;exitDx=0;exitDy=0;" edge="1" parent="1" source="cT9uqwKPEqpuGE8zAoui-63" target="cT9uqwKPEqpuGE8zAoui-64">
          <mxGeometry relative="1" as="geometry">
            <mxPoint x="561" y="460" as="sourcePoint" />
            <mxPoint x="491" y="500" as="targetPoint" />
          </mxGeometry>
        </mxCell>
        <mxCell id="cT9uqwKPEqpuGE8zAoui-72" value="" style="endArrow=none;html=1;rounded=0;entryX=0.5;entryY=0;entryDx=0;entryDy=0;exitX=0.5;exitY=1;exitDx=0;exitDy=0;" edge="1" parent="1" source="cT9uqwKPEqpuGE8zAoui-63" target="cT9uqwKPEqpuGE8zAoui-65">
          <mxGeometry relative="1" as="geometry">
            <mxPoint x="583" y="474" as="sourcePoint" />
            <mxPoint x="501" y="510" as="targetPoint" />
          </mxGeometry>
        </mxCell>
      </root>
    </mxGraphModel>
  </diagram>
</mxfile>
